<svg xmlns="http://www.w3.org/2000/svg">
    <rect width="1" height="1" x="4" y="0" fill="#ad745c"></rect>
    <rect width="1" height="1" x="5" y="0" fill="#ad745c"></rect>
    <rect width="1" height="1" x="6" y="0" fill="#ad745c"></rect>
    <rect width="1" height="1" x="4" y="1" fill="#d49c4c"></rect>
    <rect width="1" height="1" x="5" y="1" fill="#f2bd73"></rect>
    <rect width="1" height="1" x="6" y="1" fill="#d99d4a"></rect>
    <rect width="1" height="1" x="7" y="1" fill="#ad745c"></rect>
    <rect width="1" height="1" x="8" y="1" fill="#ad745c"></rect>
    <rect width="1" height="1" x="3" y="2" fill="#f2bd73"></rect>
    <rect width="1" height="1" x="4" y="2" fill="#dc8c54"></rect>
    <rect width="1" height="1" x="5" y="2" fill="#c11f3a"></rect>
    <rect width="1" height="1" x="6" y="2" fill="#9c101c"></rect>
    <rect width="1" height="1" x="7" y="2" fill="#f2bd73"></rect>
    <rect width="1" height="1" x="8" y="2" fill="#d49c4c"></rect>
    <rect width="1" height="1" x="9" y="2" fill="#ad745c"></rect>
    <rect width="1" height="1" x="2" y="3" fill="#c11f3a"></rect>
    <rect width="1" height="1" x="3" y="3" fill="#9c101c"></rect>
    <rect width="1" height="1" x="4" y="3" fill="#dc8c54"></rect>
    <rect width="1" height="1" x="5" y="3" fill="#f2bd73"></rect>
    <rect width="1" height="1" x="6" y="3" fill="#c11f3a"></rect>
    <rect width="1" height="1" x="7" y="3" fill="#c11f3a"></rect>
    <rect width="1" height="1" x="8" y="3" fill="#d49c4c"></rect>
    <rect width="1" height="1" x="9" y="3" fill="#ad745c"></rect>
    <rect width="1" height="1" x="1" y="4" fill="#dc8c54"></rect>
    <rect width="1" height="1" x="2" y="4" fill="#f2bd73"></rect>
    <rect width="1" height="1" x="3" y="4" fill="#c11f3a"></rect>
    <rect width="1" height="1" x="4" y="4" fill="#9c101c"></rect>
    <rect width="1" height="1" x="5" y="4" fill="#c11f3a"></rect>
    <rect width="1" height="1" x="6" y="4" fill="#f2bd73"></rect>
    <rect width="1" height="1" x="7" y="4" fill="#bc6c14"></rect>
    <rect width="1" height="1" x="8" y="4" fill="#f2bd73"></rect>
    <rect width="1" height="1" x="9" y="4" fill="#ad745c"></rect>
    <rect width="1" height="1" x="0" y="5" fill="#c11f3a"></rect>
    <rect width="1" height="1" x="1" y="5" fill="#9d101c"></rect>
    <rect width="1" height="1" x="2" y="5" fill="#9c101c"></rect>
    <rect width="1" height="1" x="3" y="5" fill="#f2bd73"></rect>
    <rect width="1" height="1" x="4" y="5" fill="#bc6c14"></rect>
    <rect width="1" height="1" x="5" y="5" fill="#bc6c14"></rect>
    <rect width="1" height="1" x="6" y="5" fill="#bc6c14"></rect>
    <rect width="1" height="1" x="7" y="5" fill="#d4995e"></rect>
    <rect width="1" height="1" x="8" y="5" fill="#f2bd73"></rect>
    <rect width="1" height="1" x="9" y="5" fill="#74541c"></rect>
    <rect width="1" height="1" x="0" y="6" fill="#9d101c"></rect>
    <rect width="1" height="1" x="1" y="6" fill="#bc6c14"></rect>
    <rect width="1" height="1" x="2" y="6" fill="#bc6c14"></rect>
    <rect width="1" height="1" x="3" y="6" fill="#bc6c14"></rect>
    <rect width="1" height="1" x="4" y="6" fill="#c47c17"></rect>
    <rect width="1" height="1" x="5" y="6" fill="#dcac7c"></rect>
    <rect width="1" height="1" x="6" y="6" fill="#dcac7c"></rect>
    <rect width="1" height="1" x="7" y="6" fill="#d4995e"></rect>
    <rect width="1" height="1" x="8" y="6" fill="#d49c4c"></rect>
    <rect width="1" height="1" x="9" y="6" fill="#74541c"></rect>
    <rect width="1" height="1" x="0" y="7" fill="#ad745c"></rect>
    <rect width="1" height="1" x="1" y="7" fill="#bc6c14"></rect>
    <rect width="1" height="1" x="2" y="7" fill="#dcac7c"></rect>
    <rect width="1" height="1" x="3" y="7" fill="#dcac7c"></rect>
    <rect width="1" height="1" x="4" y="7" fill="#bc6c14"></rect>
    <rect width="1" height="1" x="5" y="7" fill="#c47c17"></rect>
    <rect width="1" height="1" x="6" y="7" fill="#d4995e"></rect>
    <rect width="1" height="1" x="7" y="7" fill="#d49c4c"></rect>
    <rect width="1" height="1" x="8" y="7" fill="#74541c"></rect>
    <rect width="1" height="1" x="0" y="8" fill="#ad745c"></rect>
    <rect width="1" height="1" x="1" y="8" fill="#d4995e"></rect>
    <rect width="1" height="1" x="2" y="8" fill="#d4995e"></rect>
    <rect width="1" height="1" x="3" y="8" fill="#d4995e"></rect>
    <rect width="1" height="1" x="4" y="8" fill="#f2bd73"></rect>
    <rect width="1" height="1" x="5" y="8" fill="#d49c4c"></rect>
    <rect width="1" height="1" x="6" y="8" fill="#74541c"></rect>
    <rect width="1" height="1" x="7" y="8" fill="#74541c"></rect>
    <rect width="1" height="1" x="0" y="9" fill="#ad745c"></rect>
    <rect width="1" height="1" x="1" y="9" fill="#f2bd73"></rect>
    <rect width="1" height="1" x="2" y="9" fill="#f2bd73"></rect>
    <rect width="1" height="1" x="3" y="9" fill="#d49c4c"></rect>
    <rect width="1" height="1" x="4" y="9" fill="#74541c"></rect>
    <rect width="1" height="1" x="5" y="9" fill="#74541c"></rect>
    <rect width="1" height="1" x="0" y="10" fill="#74541c"></rect>
    <rect width="1" height="1" x="1" y="10" fill="#74541c"></rect>
    <rect width="1" height="1" x="2" y="10" fill="#74541c"></rect>
    <rect width="1" height="1" x="3" y="10" fill="#74541c"></rect>
</svg>